<svg width="430" height="430" viewBox="0 0 430 430" fill="none" xmlns="http://www.w3.org/2000/svg">
<path d="M329.1 266.2C329.1 256.9 328 247.7 325.8 238.8V238.7C315.6 197.6 283.7 165.7 242.6 155.5C235.6 153.7 228.3 152.7 221 152.3V101H290.6C306.6 101 319.6 88 319.6 72V55C319.6 51.7 316.9 49 313.6 49H116.4C113.1 49 110.4 51.7 110.4 55V72.1C110.4 88.1 123.4 101.1 139.4 101.1H209V152.3C201.7 152.7 194.4 153.7 187.4 155.5C146.3 165.7 114.4 197.6 104.2 238.7V238.8C102 247.7 100.9 257 100.9 266.3C100.9 275.6 102 284.8 104.2 293.8V293.9C114.4 335 146.3 366.9 187.4 377.1C187.5 377.1 187.5 377.1 187.5 377.1C196.4 379.3 205.6 380.4 214.9 380.4H215H215.1C224.4 380.4 233.7 379.3 242.6 377C283.7 366.8 315.6 334.9 325.8 293.8V293.7C328 284.7 329.1 275.5 329.1 266.2ZM122.4 72.1V61H307.6V72.1C307.6 81.5 300 89.1 290.6 89.1H139.4C130 89 122.4 81.4 122.4 72.1ZM237.7 365.8C232.3 367 226.6 367.8 221 368.2V326C233.1 325.7 244.9 324.7 256.3 322.9C251.9 340.6 245.4 355.6 237.7 365.8ZM192.3 365.8C184.6 355.6 178.1 340.6 173.7 322.8C185 324.6 196.8 325.7 209 325.9V368.1C203.4 367.9 197.8 367.1 192.3 365.8ZM192.3 166.6C197.7 165.4 203.3 164.6 209 164.2V206.4C196.9 206.7 185.1 207.7 173.7 209.5C178.1 191.8 184.6 176.8 192.3 166.6ZM237.7 166.6C245.4 176.8 251.9 191.8 256.3 209.6C245 207.8 233.2 206.7 221 206.5V164.3C226.6 164.6 232.2 165.4 237.7 166.6ZM314.6 243.5C315.8 249 316.6 254.5 317 260.2H274.8C274.5 248.1 273.5 236.3 271.7 224.9C289.4 229.3 304.4 235.8 314.6 243.5ZM221 314V272.2H262.8C262.5 285.3 261.2 298.1 259 310.2C246.9 312.4 234.2 313.7 221 314ZM171 310.2C168.8 298.1 167.5 285.4 167.2 272.2H209V314C195.9 313.7 183.1 312.4 171 310.2ZM209 218.5V260.2H167.2C167.5 247 168.8 234.3 171 222.2C183.1 220 195.8 218.8 209 218.5ZM221 260.2V218.5C234.2 218.8 246.9 220.1 259 222.3C261.2 234.4 262.5 247.1 262.8 260.3H221V260.2ZM155.3 260.2H113C113.3 254.6 114.1 249 115.4 243.5C125.6 235.8 140.6 229.3 158.4 224.9C156.6 236.3 155.5 248.1 155.3 260.2ZM115.4 288.9C114.2 283.4 113.4 277.9 113 272.2H155.2C155.5 284.3 156.5 296.2 158.3 307.5C140.6 303.1 125.6 296.6 115.4 288.9ZM274.8 272.2H317C316.7 277.8 315.9 283.4 314.6 288.9C304.4 296.6 289.4 303.1 271.6 307.5C273.4 296.2 274.5 284.4 274.8 272.2ZM308.9 225.8C297.9 220 284.5 215.4 269.2 212C265.8 196.7 261.2 183.3 255.4 172.3C279.4 182.6 298.6 201.8 308.9 225.8ZM174.6 172.3C168.8 183.3 164.2 196.7 160.8 212C145.5 215.4 132.1 220 121.1 225.8C131.4 201.8 150.6 182.6 174.6 172.3ZM121.1 306.6C132.1 312.4 145.5 317 160.8 320.4C164.2 335.7 168.8 349.1 174.6 360.1C150.6 349.8 131.4 330.7 121.1 306.6ZM255.4 360.1C261.2 349.1 265.8 335.7 269.2 320.4C284.5 317 297.9 312.4 308.9 306.6C298.6 330.7 279.5 349.8 255.4 360.1ZM381 266.2C381 269.5 378.3 272.2 375 272.2H348C344.7 272.2 342 269.5 342 266.2C342 262.9 344.7 260.2 348 260.2H375C378.3 260.2 381 262.9 381 266.2ZM345 232.6C343.2 229.8 344.1 226.1 346.9 224.3L369.8 209.9C372.6 208.1 376.3 209 378.1 211.8C379.9 214.6 379 218.3 376.2 220.1L353.3 234.5C352.3 235.1 351.2 235.4 350.1 235.4C348.1 235.4 346.1 234.4 345 232.6ZM378 320.6C376.9 322.4 374.9 323.4 372.9 323.4C371.8 323.4 370.7 323.1 369.7 322.5L346.8 308.1C344 306.3 343.2 302.6 344.9 299.8C346.7 297 350.4 296.2 353.2 297.9L376.1 312.3C378.9 314.1 379.8 317.8 378 320.6ZM88 266.2C88 269.5 85.3 272.2 82 272.2H55C51.7 272.2 49 269.5 49 266.2C49 262.9 51.7 260.2 55 260.2H82C85.3 260.2 88 262.9 88 266.2ZM52 211.8C53.8 209 57.5 208.2 60.3 209.9L83.2 224.3C86 226.1 86.9 229.8 85.1 232.6C84 234.4 82 235.4 80 235.4C78.9 235.4 77.8 235.1 76.8 234.5L53.9 220.1C51.1 218.3 50.2 214.6 52 211.8ZM85 299.9C86.8 302.7 85.9 306.4 83.1 308.2L60.3 322.6C59.3 323.2 58.2 323.5 57.1 323.5C55.1 323.5 53.2 322.5 52 320.7C50.2 317.9 51.1 314.2 53.9 312.4L76.7 298C79.5 296.2 83.2 297 85 299.9Z" fill="url(#paint0_linear_2170_5432)"/>
<defs>
<linearGradient id="paint0_linear_2170_5432" x1="81.0226" y1="81.8949" x2="348.98" y2="349.853" gradientUnits="userSpaceOnUse">
<stop stop-color="#CB5EEE"/>
<stop offset="1" stop-color="#4BE1EC"/>
</linearGradient>
</defs>
</svg>
